<?xml version="1.0" encoding="utf-8"?>
<!DOCTYPE svg PUBLIC "-//W3C//DTD SVG 20010904//EN" "http://www.w3.org/TR/2001/REC-SVG-20010904/DTD/svg10.dtd">
<svg version="1.0" xmlns="http://www.w3.org/2000/svg" width="602pt" height="482pt" viewBox="0 0 602 482" style="" preserveAspectRatio="xMidYMid meet">
<g fill="none" stroke="none">
<path d="M 1.000 241.000 L 1.000 481.000 301.000 481.000 L 601.000 481.000 601.000 241.000 L 601.000 1.000 301.000 1.000 L 1.000 1.000 1.000 241.000 M 252.000 111.500 C 252.000 130.475 252.338 145.981 252.750 145.957 C 253.163 145.933 262.950 139.252 274.500 131.110 L 295.500 116.307 295.777 131.250 C 295.986 142.590 296.350 146.080 297.285 145.721 C 297.963 145.461 307.964 138.635 319.509 130.552 L 340.500 115.856 340.776 130.928 C 340.928 139.218 341.237 146.000 341.463 146.000 C 341.688 146.000 351.464 139.285 363.187 131.079 L 384.500 116.157 384.763 151.079 L 385.026 186.000 299.513 186.000 L 214.000 186.000 214.000 132.167 C 214.000 102.558 214.300 78.033 214.667 77.667 C 215.033 77.300 223.583 77.000 233.667 77.000 L 252.000 77.000 252.000 111.500 M 390.580 235.886 C 395.210 238.709 397.500 244.208 397.500 252.500 C 397.500 260.756 395.263 264.805 388.913 268.044 C 381.617 271.767 372.511 272.125 294.000 271.779 C 224.146 271.472 218.148 271.313 213.795 269.645 C 208.003 267.426 202.353 261.397 201.423 256.443 C 199.952 248.598 204.690 237.286 210.418 234.969 C 211.563 234.506 251.875 234.100 300.000 234.067 C 383.906 234.010 387.626 234.085 390.580 235.886 M 390.510 198.440 C 400.229 202.501 400.229 217.499 390.510 221.560 C 387.600 222.776 373.416 223.000 299.267 223.000 C 216.145 223.000 211.287 222.903 208.062 221.173 C 204.275 219.142 201.000 213.920 201.000 209.913 C 201.000 206.245 204.896 200.824 209.020 198.752 C 212.254 197.127 218.681 197.003 299.782 197.002 C 373.485 197.000 387.600 197.224 390.510 198.440 M 392.088 285.280 C 396.111 287.992 397.965 291.298 397.985 295.800 C 398.006 300.370 395.565 304.639 391.733 306.733 C 388.727 308.376 382.560 308.521 304.000 308.803 C 257.525 308.969 217.049 308.814 214.053 308.456 C 204.562 307.325 199.232 299.810 202.095 291.597 C 202.976 289.069 204.768 286.714 206.898 285.283 L 210.296 283.000 299.500 283.000 L 388.704 283.000 392.088 285.280 M 400.606 52.139 C 402.139 63.323 394.704 75.070 382.199 81.219 C 375.641 84.445 375.301 84.499 362.014 84.461 C 345.794 84.414 336.348 82.283 309.000 72.500 C 283.494 63.376 272.048 60.705 258.500 60.716 C 246.588 60.726 238.075 62.328 227.840 66.487 L 221.607 69.020 224.554 65.930 C 226.174 64.231 230.425 60.903 234.000 58.535 C 246.302 50.386 257.464 47.000 272.026 47.000 C 283.525 47.000 287.376 47.645 314.158 54.057 C 345.521 61.566 359.502 62.307 376.209 57.345 C 381.660 55.727 392.970 50.322 396.500 47.649 C 399.071 45.702 399.838 46.541 400.606 52.139 M 329.679 341.605 C 331.231 342.762 333.400 345.237 334.500 347.105 C 336.325 350.202 336.500 352.298 336.500 371.000 C 336.500 389.880 336.334 391.816 334.402 395.500 C 331.409 401.208 327.511 403.127 317.664 403.741 C 305.216 404.518 306.000 406.711 306.000 371.129 C 306.000 348.693 306.307 341.087 307.250 340.125 C 308.134 339.223 311.189 338.945 317.679 339.175 C 325.119 339.438 327.393 339.899 329.679 341.605 M 85.000 340.752 C 90.511 343.505 93.245 349.776 92.737 358.500 C 92.513 362.350 91.647 366.801 90.812 368.392 C 89.448 370.993 89.456 371.597 90.898 374.392 C 91.975 376.482 92.500 380.120 92.499 385.500 C 92.498 398.476 88.556 402.734 75.639 403.711 C 63.122 404.658 64.000 407.115 64.000 371.131 C 64.000 354.193 64.300 340.033 64.667 339.667 C 66.156 338.177 81.484 338.995 85.000 340.752 M 272.643 340.635 C 277.943 343.150 279.492 346.971 279.496 357.544 C 279.499 364.525 279.095 367.206 277.725 369.296 C 276.106 371.768 276.084 372.262 277.475 374.953 C 278.594 377.117 279.000 381.111 279.000 389.972 C 279.000 401.824 278.955 402.063 276.541 403.163 C 274.572 404.061 273.576 403.952 271.541 402.619 C 269.096 401.017 269.000 400.571 269.000 390.806 C 269.000 378.901 268.015 377.000 261.845 377.000 L 258.000 377.000 258.000 389.521 C 258.000 401.852 257.962 402.060 255.541 403.163 C 253.572 404.061 252.576 403.952 250.541 402.619 L 248.000 400.954 248.000 371.177 C 248.000 349.350 248.320 341.080 249.200 340.200 C 251.093 338.307 268.415 338.629 272.643 340.635 M 163.810 341.026 C 168.692 344.002 170.252 348.672 169.842 359.086 C 169.579 365.779 169.077 368.260 167.672 369.812 C 165.906 371.762 165.905 371.926 167.653 374.593 C 169.020 376.679 169.556 379.877 169.844 387.660 C 170.054 393.328 169.954 399.048 169.621 400.372 C 168.922 403.159 164.929 404.568 162.068 403.037 C 160.423 402.156 160.134 400.584 159.839 390.930 C 159.460 378.516 158.640 377.000 152.309 377.000 L 149.000 377.000 149.000 388.977 C 149.000 400.700 148.946 400.989 146.459 402.619 C 144.424 403.952 143.428 404.061 141.459 403.163 L 139.000 402.043 139.000 371.188 C 139.000 354.218 139.300 340.033 139.667 339.667 C 140.033 339.300 144.871 339.002 150.417 339.004 C 158.766 339.007 161.069 339.355 163.810 341.026 M 471.800 340.200 C 472.603 341.003 473.000 345.467 473.000 353.700 L 473.000 366.000 478.000 366.000 L 483.000 366.000 483.000 353.700 C 483.000 340.707 483.536 339.000 487.618 339.000 C 493.228 339.000 493.000 337.640 493.000 371.072 C 493.000 400.557 492.914 401.976 491.066 402.965 C 488.353 404.417 486.398 404.255 484.571 402.429 C 483.311 401.169 483.000 398.394 483.000 388.429 L 483.000 376.000 478.000 376.000 L 473.000 376.000 473.000 389.021 C 473.000 401.941 472.980 402.052 470.500 403.182 C 468.630 404.034 467.370 404.034 465.500 403.182 L 463.000 402.043 463.000 371.721 C 463.000 339.321 463.049 339.000 468.000 339.000 C 469.430 339.000 471.140 339.540 471.800 340.200 M 201.102 341.270 C 205.560 344.248 207.997 349.293 207.998 355.550 C 208.000 361.064 206.798 363.000 203.371 363.000 C 200.035 363.000 198.000 360.348 198.000 356.000 C 198.000 353.827 197.314 351.457 196.429 350.571 C 194.199 348.342 189.310 348.553 188.035 350.934 C 186.662 353.500 186.662 388.500 188.035 391.066 C 188.750 392.401 190.133 393.000 192.500 393.000 C 196.595 393.000 198.000 390.973 198.000 385.066 C 198.000 381.490 197.723 381.000 195.700 381.000 C 192.659 381.000 191.000 379.208 191.000 375.922 C 191.000 371.844 192.997 370.869 200.660 371.202 L 207.500 371.500 207.786 381.273 C 208.255 397.271 204.050 403.342 192.459 403.402 C 186.031 403.436 181.364 400.775 178.598 395.500 C 176.666 391.816 176.500 389.880 176.500 371.000 C 176.500 348.954 176.851 347.179 182.155 342.377 C 185.244 339.581 186.537 339.173 192.602 339.079 C 196.336 339.021 198.615 339.609 201.102 341.270 M 448.965 340.842 C 453.108 343.063 455.860 348.021 456.649 354.684 C 457.309 360.256 455.627 363.000 451.551 363.000 C 448.508 363.000 447.377 361.433 446.500 356.000 C 445.592 350.374 444.499 349.000 440.934 349.000 C 435.673 349.000 435.000 351.459 435.000 370.675 C 435.000 390.516 435.616 393.000 440.538 393.000 C 444.571 393.000 445.632 391.715 446.520 385.750 C 447.206 381.144 447.150 381.000 444.685 381.000 C 440.069 381.000 437.813 377.086 440.035 372.934 C 440.904 371.311 442.171 371.000 447.913 371.000 C 457.027 371.000 457.402 371.526 456.779 383.427 C 456.217 394.183 454.464 398.241 449.004 401.429 C 444.437 404.097 435.875 404.044 432.234 401.325 C 425.674 396.427 425.528 395.832 425.204 372.679 C 424.918 352.262 424.990 351.338 427.204 347.000 C 431.053 339.457 441.088 336.617 448.965 340.842 M 107.800 340.200 C 108.666 341.066 109.000 348.037 109.000 365.266 C 109.000 379.805 109.405 389.887 110.035 391.066 C 111.348 393.518 117.174 393.700 119.128 391.349 C 120.179 390.084 120.617 383.819 121.000 364.599 L 121.500 339.500 124.815 339.182 C 130.950 338.593 131.000 338.799 131.000 364.680 C 131.000 390.646 130.304 395.376 125.858 399.636 C 123.273 402.112 121.992 402.512 115.603 402.835 C 108.588 403.189 108.159 403.078 104.675 400.019 C 102.603 398.201 100.612 395.263 100.030 393.168 C 98.528 387.759 98.676 341.724 100.200 340.200 C 100.860 339.540 102.570 339.000 104.000 339.000 C 105.430 339.000 107.140 339.540 107.800 340.200 M 242.020 341.038 C 243.188 343.219 242.444 347.030 240.615 348.235 C 240.002 348.639 236.238 348.976 232.250 348.985 L 225.000 349.000 225.000 357.500 L 225.000 366.000 231.300 366.000 C 238.215 366.000 240.000 367.026 240.000 371.000 C 240.000 374.974 238.215 376.000 231.300 376.000 L 225.000 376.000 225.000 385.000 L 225.000 394.000 232.965 394.000 C 239.816 394.000 241.074 394.270 241.965 395.934 C 243.435 398.682 243.269 399.731 241.000 402.000 C 239.254 403.746 237.667 404.000 228.500 404.000 C 212.956 404.000 214.000 406.299 214.000 372.065 C 214.000 356.335 214.426 343.010 214.975 341.565 C 215.950 339.001 215.953 339.000 228.440 339.000 C 239.983 339.000 241.012 339.154 242.020 341.038 M 371.355 341.197 C 372.079 342.348 372.106 343.798 371.440 345.697 C 370.484 348.425 370.237 348.508 362.229 348.790 L 354.000 349.081 354.000 357.540 L 354.000 366.000 360.378 366.000 C 367.711 366.000 369.300 367.164 368.818 372.185 L 368.500 375.500 361.250 375.794 L 354.000 376.088 354.000 385.044 L 354.000 394.000 361.800 394.000 C 370.100 394.000 372.000 394.862 372.000 398.629 C 372.000 403.087 369.683 404.000 358.363 404.000 C 352.591 404.000 346.998 403.534 345.934 402.965 C 344.086 401.976 344.000 400.557 344.000 371.131 C 344.000 354.193 344.313 340.021 344.695 339.638 C 345.077 339.256 350.992 339.068 357.838 339.222 C 368.263 339.455 370.460 339.776 371.355 341.197 M 532.020 341.038 C 533.188 343.219 532.444 347.030 530.615 348.235 C 530.002 348.639 527.588 348.976 525.250 348.985 L 521.000 349.000 521.000 375.521 L 521.000 402.043 518.541 403.163 C 516.572 404.061 515.576 403.952 513.541 402.619 L 511.000 400.954 511.000 374.977 L 511.000 349.000 506.700 349.000 C 501.761 349.000 500.000 347.686 500.000 344.000 C 500.000 339.407 501.357 339.000 516.665 339.000 C 529.994 339.000 531.001 339.134 532.020 341.038 M 385.800 340.200 C 386.672 341.072 387.000 348.569 387.000 367.660 L 387.000 393.919 395.250 394.210 L 403.500 394.500 403.829 397.956 C 404.318 403.105 402.380 404.000 390.743 404.000 C 385.312 404.000 379.998 403.534 378.934 402.965 C 377.086 401.976 377.000 400.557 377.000 371.131 C 377.000 354.193 377.300 340.033 377.667 339.667 C 378.785 338.548 384.524 338.924 385.800 340.200 M 417.800 340.200 C 418.681 341.081 419.000 349.471 419.000 371.721 L 419.000 402.043 416.500 403.182 C 414.630 404.034 413.370 404.034 411.500 403.182 L 409.000 402.043 409.000 371.721 C 409.000 339.321 409.049 339.000 414.000 339.000 C 415.430 339.000 417.140 339.540 417.800 340.200 "/></g>
<g fill="#5C1914FF" stroke="#5C1914FF">
<path d="M 214.241 131.750 L 214.500 185.500 299.763 185.756 L 385.026 186.011 384.763 151.114 L 384.500 116.216 363.277 131.108 C 351.605 139.299 341.829 146.000 341.553 146.000 C 341.278 146.000 340.928 139.261 340.776 131.023 L 340.500 116.047 318.500 131.443 L 296.500 146.840 296.225 131.481 L 295.950 116.123 282.225 125.788 C 274.676 131.103 268.350 135.800 268.167 136.226 C 267.983 136.652 267.391 137.000 266.850 137.000 C 265.748 137.000 258.685 142.084 258.167 143.250 C 257.983 143.663 257.344 144.000 256.745 144.000 C 256.147 144.000 254.835 144.745 253.829 145.655 C 252.060 147.255 252.000 146.165 252.000 112.655 L 252.000 78.000 232.991 78.000 L 213.983 78.000 214.241 131.750 "/></g>
<g fill="#F3441CFF" stroke="#F3441CFF">
<path d="M 206.898 285.283 C 202.900 287.968 200.321 294.160 201.404 298.473 C 201.797 300.038 203.578 302.778 205.362 304.562 C 207.940 307.140 209.727 307.941 214.053 308.456 C 217.049 308.814 257.525 308.969 304.000 308.803 C 382.560 308.521 388.727 308.376 391.733 306.733 C 395.565 304.639 398.006 300.370 397.985 295.800 C 397.965 291.298 396.111 287.992 392.088 285.280 L 388.704 283.000 299.500 283.000 L 210.296 283.000 206.898 285.283 "/></g>
<g fill="#35A73EFF" stroke="#35A73EFF">
<path d="M 207.763 199.565 C 202.459 202.443 200.473 210.146 203.517 216.033 C 206.778 222.338 202.014 222.058 300.900 221.766 L 390.839 221.500 393.421 219.074 C 399.125 213.716 398.483 204.581 392.102 200.287 L 388.704 198.000 299.602 198.040 C 222.740 198.075 210.124 198.284 207.763 199.565 "/></g>
<g fill="#F7960FFF" stroke="#F7960FFF">
<path d="M 208.623 237.082 C 202.207 242.129 200.063 253.781 204.197 261.137 C 205.785 263.963 207.932 265.801 211.947 267.773 L 217.500 270.500 296.366 270.779 C 347.591 270.960 377.193 270.696 380.824 270.025 C 387.549 268.782 393.347 265.164 395.602 260.803 C 397.767 256.616 397.647 248.631 395.334 242.981 L 393.500 238.500 393.831 243.143 C 394.406 251.210 389.969 256.394 384.087 254.528 C 382.955 254.168 379.526 251.836 376.467 249.343 C 366.862 241.519 362.400 241.546 353.916 249.482 C 348.547 254.504 342.825 256.480 336.637 255.448 C 333.400 254.908 331.357 253.582 327.247 249.353 C 321.448 243.386 318.763 242.000 313.000 242.000 C 307.762 242.000 304.547 243.362 299.100 247.886 C 292.623 253.267 290.874 254.000 284.516 254.000 C 278.002 254.000 274.854 252.590 270.000 247.500 C 265.322 242.594 262.011 241.000 256.500 241.000 C 251.366 241.000 247.171 242.821 242.073 247.264 C 237.121 251.579 232.369 253.290 226.821 252.757 C 218.904 251.996 210.617 243.974 211.224 237.660 L 211.497 234.821 208.623 237.082 "/></g>
<g fill="#F3441CFF" stroke="#F3441CFF">
<path d="M 396.500 47.649 C 392.160 50.936 380.382 56.244 373.136 58.181 C 367.340 59.729 362.488 60.215 353.000 60.194 C 340.023 60.166 335.377 59.396 310.500 53.148 C 303.900 51.491 294.738 49.429 290.140 48.567 C 280.734 46.804 261.461 46.446 260.490 48.016 C 260.144 48.575 259.453 48.780 258.953 48.471 C 257.951 47.851 250.720 49.874 244.500 52.513 C 239.056 54.823 228.150 62.159 224.554 65.930 L 221.607 69.020 227.840 66.487 C 238.075 62.328 246.588 60.726 258.500 60.716 C 272.085 60.705 283.492 63.376 309.300 72.607 C 319.136 76.126 327.561 78.771 328.023 78.486 C 328.484 78.201 329.122 78.388 329.440 78.902 C 329.758 79.417 334.176 80.858 339.259 82.105 C 346.437 83.866 351.516 84.387 362.014 84.436 C 375.323 84.499 375.630 84.450 382.199 81.219 C 394.704 75.070 402.139 63.323 400.606 52.139 C 399.838 46.541 399.071 45.702 396.500 47.649 "/></g>
<g fill="#FBC108FF" stroke="#FBC108FF">
<path d="M 211.361 236.502 C 210.423 238.947 211.827 242.733 215.021 246.371 C 222.457 254.841 232.979 255.188 242.073 247.264 C 247.171 242.821 251.366 241.000 256.500 241.000 C 262.011 241.000 265.322 242.594 270.000 247.500 C 274.854 252.590 278.002 254.000 284.516 254.000 C 290.874 254.000 292.623 253.267 299.100 247.886 C 304.547 243.362 307.762 242.000 313.000 242.000 C 318.763 242.000 321.448 243.386 327.247 249.353 C 331.357 253.582 333.400 254.908 336.637 255.448 C 342.825 256.480 348.547 254.504 353.916 249.482 C 362.419 241.528 366.856 241.515 376.551 249.412 C 382.587 254.328 385.611 255.576 388.939 254.519 C 394.251 252.833 395.667 240.578 390.988 236.789 C 388.902 235.100 383.821 235.000 300.358 235.000 C 222.626 235.000 211.868 235.182 211.361 236.502 "/></g>
<g fill="#F3441CFF" stroke="#F3441CFF">
<path d="M 307.250 340.125 C 306.307 341.087 306.000 348.693 306.000 371.129 C 306.000 406.711 305.216 404.518 317.664 403.741 C 327.511 403.127 331.409 401.208 334.402 395.500 C 336.334 391.816 336.500 389.880 336.500 371.000 C 336.500 352.298 336.325 350.202 334.500 347.105 C 330.853 340.914 327.936 339.538 317.679 339.175 C 311.189 338.945 308.134 339.223 307.250 340.125 M 324.171 350.655 C 325.818 352.146 326.000 354.162 326.000 370.964 C 326.000 391.714 325.793 392.462 319.750 393.548 L 316.000 394.223 316.000 371.611 L 316.000 349.000 319.171 349.000 C 320.915 349.000 323.165 349.745 324.171 350.655 "/></g>
<g fill="#F3441CFF" stroke="#F3441CFF">
<path d="M 64.667 339.667 C 64.300 340.033 64.000 354.193 64.000 371.131 C 64.000 407.115 63.122 404.658 75.639 403.711 C 88.556 402.734 92.498 398.476 92.499 385.500 C 92.500 380.120 91.975 376.482 90.898 374.392 C 89.456 371.597 89.448 370.993 90.812 368.392 C 91.647 366.801 92.513 362.350 92.737 358.500 C 93.245 349.776 90.511 343.505 85.000 340.752 C 81.484 338.995 66.156 338.177 64.667 339.667 M 80.440 377.332 C 81.624 378.198 82.427 380.389 82.735 383.593 C 83.280 389.268 81.356 392.475 76.750 393.566 L 74.000 394.217 74.000 385.108 C 74.000 376.261 74.066 376.000 76.309 376.000 C 77.579 376.000 79.438 376.599 80.440 377.332 M 81.443 351.223 C 82.299 352.445 83.000 355.270 83.000 357.500 C 83.000 362.826 80.738 366.000 76.943 366.000 L 74.000 366.000 74.000 357.500 L 74.000 349.000 76.943 349.000 C 78.851 349.000 80.434 349.782 81.443 351.223 "/></g>
<g fill="#F3441CFF" stroke="#F3441CFF">
<path d="M 249.200 340.200 C 248.320 341.080 248.000 349.350 248.000 371.177 L 248.000 400.954 250.541 402.619 C 252.576 403.952 253.572 404.061 255.541 403.163 C 257.962 402.060 258.000 401.852 258.000 389.521 L 258.000 377.000 261.845 377.000 C 268.015 377.000 269.000 378.901 269.000 390.806 C 269.000 400.571 269.096 401.017 271.541 402.619 C 273.576 403.952 274.572 404.061 276.541 403.163 C 278.955 402.063 279.000 401.824 279.000 389.972 C 279.000 381.111 278.594 377.117 277.475 374.953 C 276.102 372.297 276.109 371.764 277.540 369.580 C 280.608 364.897 280.662 348.805 277.619 345.762 C 276.925 345.068 276.327 344.070 276.289 343.544 C 276.252 343.018 274.716 341.781 272.876 340.794 C 268.838 338.628 251.214 338.186 249.200 340.200 M 268.443 351.223 C 270.558 354.241 270.450 361.256 268.250 363.811 C 267.274 364.945 264.619 366.139 262.250 366.510 L 258.000 367.176 258.000 358.088 L 258.000 349.000 262.443 349.000 C 265.901 349.000 267.232 349.493 268.443 351.223 "/></g>
<g fill="#F3441CFF" stroke="#F3441CFF">
<path d="M 139.667 339.667 C 139.300 340.033 139.000 354.218 139.000 371.188 L 139.000 402.043 141.459 403.163 C 143.428 404.061 144.424 403.952 146.459 402.619 C 148.946 400.989 149.000 400.700 149.000 388.977 L 149.000 377.000 152.309 377.000 C 158.640 377.000 159.460 378.516 159.839 390.930 C 160.134 400.584 160.423 402.156 162.068 403.037 C 164.929 404.568 168.922 403.159 169.621 400.372 C 169.954 399.048 170.054 393.328 169.844 387.660 C 169.556 379.877 169.020 376.679 167.653 374.593 C 165.905 371.926 165.906 371.762 167.672 369.810 C 169.197 368.125 169.500 366.060 169.500 357.359 C 169.500 349.736 169.140 346.705 168.165 346.102 C 167.430 345.648 166.954 344.877 167.105 344.388 C 167.257 343.900 165.879 342.488 164.043 341.250 C 161.123 339.282 159.426 339.000 150.519 339.000 C 144.917 339.000 140.033 339.300 139.667 339.667 M 158.429 350.571 C 159.460 351.603 160.000 353.956 160.000 357.416 C 160.000 363.549 158.476 365.464 152.750 366.527 L 149.000 367.223 149.000 358.111 L 149.000 349.000 152.929 349.000 C 155.167 349.000 157.533 349.676 158.429 350.571 "/></g>
<g fill="#F3441CFF" stroke="#F3441CFF">
<path d="M 464.200 340.200 C 463.319 341.081 463.000 349.471 463.000 371.721 L 463.000 402.043 465.500 403.182 C 467.370 404.034 468.630 404.034 470.500 403.182 C 472.980 402.052 473.000 401.941 473.000 389.021 L 473.000 376.000 478.000 376.000 L 483.000 376.000 483.000 388.429 C 483.000 398.394 483.311 401.169 484.571 402.429 C 486.398 404.255 488.353 404.417 491.066 402.965 C 492.914 401.976 493.000 400.557 493.000 371.072 C 493.000 337.640 493.228 339.000 487.618 339.000 C 483.536 339.000 483.000 340.707 483.000 353.700 L 483.000 366.000 478.000 366.000 L 473.000 366.000 473.000 353.700 C 473.000 340.473 472.499 339.000 468.000 339.000 C 466.570 339.000 464.860 339.540 464.200 340.200 "/></g>
<g fill="#F3441CFF" stroke="#F3441CFF">
<path d="M 186.000 339.706 C 183.640 340.569 179.964 344.221 178.155 347.500 C 176.766 350.017 176.500 353.800 176.500 371.000 C 176.500 389.880 176.666 391.816 178.598 395.500 C 181.364 400.775 186.031 403.436 192.459 403.402 C 204.050 403.342 208.255 397.271 207.786 381.273 L 207.500 371.500 200.660 371.202 C 192.979 370.868 190.958 371.862 191.201 375.856 C 191.419 379.425 192.773 381.000 195.622 381.000 C 197.736 381.000 198.000 381.451 198.000 385.066 C 198.000 390.973 196.595 393.000 192.500 393.000 C 190.133 393.000 188.750 392.401 188.035 391.066 C 187.429 389.934 187.000 381.511 187.000 370.757 C 187.000 351.066 187.373 349.429 192.000 348.803 C 195.459 348.335 198.000 351.418 198.000 356.082 C 198.000 360.346 200.061 363.000 203.371 363.000 C 206.798 363.000 208.000 361.064 207.998 355.550 C 207.995 345.465 201.891 338.935 192.602 339.079 C 189.796 339.122 186.825 339.405 186.000 339.706 "/></g>
<g fill="#F3441CFF" stroke="#F3441CFF">
<path d="M 433.000 340.752 C 430.722 341.889 428.714 344.058 427.250 346.962 C 425.151 351.124 425.000 352.701 425.006 370.462 C 425.009 380.933 425.452 391.075 425.990 393.000 C 428.053 400.379 437.008 405.157 444.818 403.045 C 453.462 400.708 456.104 396.344 456.788 383.271 C 457.401 371.544 457.007 371.000 447.913 371.000 C 442.171 371.000 440.904 371.311 440.035 372.934 C 437.813 377.086 440.069 381.000 444.685 381.000 C 447.150 381.000 447.206 381.144 446.520 385.750 C 445.632 391.715 444.571 393.000 440.538 393.000 C 435.616 393.000 435.000 390.516 435.000 370.675 C 435.000 351.459 435.673 349.000 440.934 349.000 C 444.499 349.000 445.592 350.374 446.500 356.000 C 447.377 361.433 448.508 363.000 451.551 363.000 C 455.627 363.000 457.309 360.256 456.649 354.684 C 455.441 344.484 449.973 338.998 441.016 339.002 C 438.532 339.002 434.925 339.790 433.000 340.752 "/></g>
<g fill="#F3441CFF" stroke="#F3441CFF">
<path d="M 100.200 340.200 C 98.676 341.724 98.528 387.759 100.030 393.168 C 100.612 395.263 102.603 398.201 104.675 400.019 C 108.159 403.078 108.588 403.189 115.603 402.835 C 121.992 402.512 123.273 402.112 125.858 399.636 C 130.304 395.376 131.000 390.646 131.000 364.680 C 131.000 338.799 130.950 338.593 124.815 339.182 L 121.500 339.500 121.000 364.599 C 120.617 383.819 120.179 390.084 119.128 391.349 C 117.174 393.700 111.348 393.518 110.035 391.066 C 109.405 389.887 109.000 379.805 109.000 365.266 C 109.000 339.749 108.857 339.000 104.000 339.000 C 102.570 339.000 100.860 339.540 100.200 340.200 "/></g>
<g fill="#F3441CFF" stroke="#F3441CFF">
<path d="M 214.975 341.565 C 214.426 343.010 214.000 356.335 214.000 372.065 C 214.000 406.299 212.956 404.000 228.500 404.000 C 237.667 404.000 239.254 403.746 241.000 402.000 C 243.269 399.731 243.435 398.682 241.965 395.934 C 241.074 394.270 239.816 394.000 232.965 394.000 L 225.000 394.000 225.000 385.000 L 225.000 376.000 231.300 376.000 C 238.215 376.000 240.000 374.974 240.000 371.000 C 240.000 367.026 238.215 366.000 231.300 366.000 L 225.000 366.000 225.000 357.500 L 225.000 349.000 232.250 348.985 C 236.238 348.976 240.002 348.639 240.615 348.235 C 242.444 347.030 243.188 343.219 242.020 341.038 C 241.012 339.154 239.983 339.000 228.440 339.000 C 215.953 339.000 215.950 339.001 214.975 341.565 "/></g>
<g fill="#F3441CFF" stroke="#F3441CFF">
<path d="M 344.695 339.638 C 344.313 340.021 344.000 354.193 344.000 371.131 C 344.000 400.557 344.086 401.976 345.934 402.965 C 348.543 404.361 369.000 404.340 369.000 402.941 C 369.000 402.359 369.437 402.152 369.971 402.482 C 371.372 403.348 372.481 397.987 371.292 396.095 C 370.536 394.892 368.288 394.429 362.145 394.210 L 354.000 393.919 354.000 384.960 L 354.000 376.000 359.750 375.885 C 368.653 375.706 368.473 375.780 368.818 372.185 C 369.300 367.164 367.711 366.000 360.378 366.000 L 354.000 366.000 354.000 357.540 L 354.000 349.081 362.229 348.790 C 370.237 348.508 370.484 348.425 371.440 345.697 C 373.340 340.281 371.769 339.533 357.838 339.222 C 350.992 339.068 345.077 339.256 344.695 339.638 "/></g>
<g fill="#F3441CFF" stroke="#F3441CFF">
<path d="M 501.200 340.200 C 500.540 340.860 500.000 342.570 500.000 344.000 C 500.000 347.686 501.761 349.000 506.700 349.000 L 511.000 349.000 511.000 374.977 L 511.000 400.954 513.541 402.619 C 515.576 403.952 516.572 404.061 518.541 403.163 L 521.000 402.043 521.000 375.521 L 521.000 349.000 525.250 348.985 C 527.588 348.976 530.002 348.639 530.615 348.235 C 532.444 347.030 533.188 343.219 532.020 341.038 C 531.001 339.134 529.994 339.000 516.665 339.000 C 506.903 339.000 502.021 339.379 501.200 340.200 "/></g>
<g fill="#F3441CFF" stroke="#F3441CFF">
<path d="M 377.667 339.667 C 377.300 340.033 377.000 354.193 377.000 371.131 C 377.000 400.557 377.086 401.976 378.934 402.965 C 379.998 403.534 385.312 404.000 390.743 404.000 C 402.380 404.000 404.318 403.105 403.829 397.956 L 403.500 394.500 395.250 394.210 L 387.000 393.919 387.000 367.660 C 387.000 348.569 386.672 341.072 385.800 340.200 C 384.524 338.924 378.785 338.548 377.667 339.667 "/></g>
<g fill="#F3441CFF" stroke="#F3441CFF">
<path d="M 410.200 340.200 C 409.319 341.081 409.000 349.471 409.000 371.721 L 409.000 402.043 411.500 403.182 C 413.370 404.034 414.630 404.034 416.500 403.182 L 419.000 402.043 419.000 371.721 C 419.000 339.321 418.951 339.000 414.000 339.000 C 412.570 339.000 410.860 339.540 410.200 340.200 "/></g>
<g fill="none" stroke="none">
<path d="M 316.000 371.611 L 316.000 394.223 319.750 393.548 C 325.793 392.462 326.000 391.714 326.000 370.964 C 326.000 350.168 325.637 349.000 319.171 349.000 L 316.000 349.000 316.000 371.611 "/></g>
<g fill="none" stroke="none">
<path d="M 258.000 358.088 L 258.000 367.176 262.250 366.510 C 267.677 365.660 270.000 362.992 270.000 357.612 C 270.000 351.430 267.868 349.000 262.443 349.000 L 258.000 349.000 258.000 358.088 "/></g>
<g fill="none" stroke="none">
<path d="M 149.000 358.111 L 149.000 367.223 152.750 366.527 C 158.476 365.464 160.000 363.549 160.000 357.416 C 160.000 350.965 158.349 349.000 152.929 349.000 L 149.000 349.000 149.000 358.111 "/></g>
<g fill="none" stroke="none">
<path d="M 74.000 385.108 L 74.000 394.217 76.750 393.566 C 81.356 392.475 83.280 389.268 82.735 383.593 C 82.223 378.270 80.302 376.000 76.309 376.000 C 74.066 376.000 74.000 376.261 74.000 385.108 "/></g>
<g fill="none" stroke="none">
<path d="M 74.000 357.500 L 74.000 366.000 76.943 366.000 C 80.738 366.000 83.000 362.826 83.000 357.500 C 83.000 352.174 80.738 349.000 76.943 349.000 L 74.000 349.000 74.000 357.500 "/></g>
<g fill="#F3441CFF" stroke="#F3441CFF">
<path d="M 206.104 238.535 C 204.397 240.479 203.002 242.616 203.004 243.285 C 203.006 243.953 203.867 243.090 204.918 241.367 C 205.969 239.643 207.867 237.506 209.137 236.617 C 210.406 235.728 210.942 235.000 210.326 235.000 C 209.711 235.000 207.811 236.591 206.104 238.535 "/></g>
</svg>
